<?xml version="1.0" encoding="utf-8"?>
<!-- Generator: Adobe Illustrator 19.0.0, SVG Export Plug-In . SVG Version: 6.00 Build 0)  -->
<svg version="1.1" id="Layer_1" xmlns="http://www.w3.org/2000/svg" xmlns:xlink="http://www.w3.org/1999/xlink" x="0px" y="0px"
	 viewBox="0 0 756.2 268.2" style="enable-background:new 0 0 756.2 268.2;" xml:space="preserve">
<style type="text/css">
	.st0{clip-path:url(#XMLID_48_);}
	.st1{clip-path:url(#XMLID_49_);}
	.st2{font-family:'Roboto-Black';}
	.st3{font-size:67.74px;}
	.st4{font-family:'Roboto-Light';}
	.st5{letter-spacing:-1;}
	.st6{font-family:'oliverquin-Regular';}
	.st7{font-size:94.1515px;}
	.st8{clip-path:url(#XMLID_50_);}
	.st9{clip-path:url(#XMLID_51_);fill:#F2CA57;}
	.st10{clip-path:url(#XMLID_51_);fill:#A1A27E;}
	.st11{clip-path:url(#XMLID_51_);}
</style>
<g id="XMLID_2_">
	<g id="XMLID_3_">
		<defs>
			<rect id="XMLID_4_" x="169.4" y="143.7" width="586.7" height="76.3"/>
		</defs>
		<clipPath id="XMLID_48_">
			<use xlink:href="#XMLID_4_"  style="overflow:visible;"/>
		</clipPath>
		<g id="XMLID_5_" class="st0">
			<defs>
				<rect id="XMLID_6_" x="169.4" y="143.7" width="586.7" height="76.3"/>
			</defs>
			<clipPath id="XMLID_49_">
				<use xlink:href="#XMLID_6_"  style="overflow:visible;"/>
			</clipPath>
			<g id="XMLID_8_" class="st1">
				<text transform="matrix(1 0 0 1 169.3961 201.6689)" class="st2 st3">bloom</text>
			</g>
			<g id="XMLID_7_" class="st1">
				<text transform="matrix(1 0 0 1 360.5573 201.6689)"><tspan x="0" y="0" class="st4 st3">r</tspan><tspan x="22.2" y="0" class="st4 st3">oom the</tspan><tspan x="268.5" y="0" class="st4 st3 st5">r</tspan><tspan x="290" y="0" class="st4 st3">a</tspan><tspan x="326.3" y="0" class="st4 st3">p</tspan><tspan x="363.5" y="0" class="st4 st3">y</tspan></text>
			</g>
		</g>
	</g>
</g>
<text id="XMLID_1_" transform="matrix(0.9802 -0.1979 0.1979 0.9802 17.313 165.7195)" class="st6 st7">Welcome to</text>
<g id="XMLID_9_">
	<g id="XMLID_23_">
		<defs>
			<rect id="XMLID_24_" x="63.2" y="128.8" width="106.2" height="106.2"/>
		</defs>
		<clipPath id="XMLID_50_">
			<use xlink:href="#XMLID_24_"  style="overflow:visible;"/>
		</clipPath>
		<g id="XMLID_25_" class="st8">
			<defs>
				<rect id="XMLID_26_" x="63.2" y="128.8" width="106.2" height="106.2"/>
			</defs>
			<clipPath id="XMLID_51_">
				<use xlink:href="#XMLID_26_"  style="overflow:visible;"/>
			</clipPath>
			<path id="XMLID_46_" class="st9" d="M136.4,174.1l-0.3,0c0,0-8.5-9.1-18.8-17.3c-4.3-3.4-8.9-6.7-13.4-9.1l0-0.1
				c17.6-17.5,25.9-11.2,29.7,2.3C135.6,156.9,136.3,165.7,136.4,174.1"/>
			<path id="XMLID_45_" class="st9" d="M134.1,149.8c26.6-3,25.3,9.9,18.4,22.5c-6,10.9-16.1,21.6-16.1,21.6l-0.6,0
				c0.4-5.2,0.7-12.3,0.6-19.7c-0.1-8.4-0.9-17.3-2.8-24.2L134.1,149.8z"/>
			<path id="XMLID_44_" class="st9" d="M152.6,172.4c17.2,16.9,9.9,24.7-4.1,28c-4,1-8.7,1.5-13.4,1.9l0-0.2c0,0,0.4-3.2,0.7-8.2
				l0.6,0c0,0,10.1-10.7,16.1-21.6L152.6,172.4z"/>
			<path id="XMLID_43_" class="st9" d="M148.6,200.6c3.6,26.8-9.2,25-21.7,17.8c-10.5-6.1-20.8-16.2-20.8-16.2l0-0.4
				c7.3,0.5,18.5,1.1,29,0.3c4.8-0.3,9.4-0.9,13.4-1.9L148.6,200.6z"/>
			<path id="XMLID_42_" class="st9" d="M126.9,218.4l-0.2,0.4c-14.9,17.2-22.5,9.9-26.4-3.1c-1.3-4.4-2.2-9.5-2.8-14.6l0.5-0.1
				c0,0,3.2,0.4,8.2,0.7l0,0.4C106.1,202.2,116.4,212.3,126.9,218.4"/>
			<path id="XMLID_41_" class="st9" d="M80.6,194.8c3.6-6,9.2-12.5,14.9-18.3l0.7,0.1c0,0-0.3,12.1,1.2,24.6
				c0.6,5,1.5,10.1,2.8,14.6l-0.2,0.1C74.5,217.1,73.3,207,80.6,194.8"/>
			<path id="XMLID_40_" class="st9" d="M111.3,161.8c-4.2,3.6-10,8.8-15.7,14.7c-5.8,5.9-11.4,12.4-14.9,18.3
				c-18-16.2-10.3-24.4,2-28.6C94,162.2,109.2,161.8,111.3,161.8"/>
			<path id="XMLID_39_" class="st9" d="M117.2,156.8L117.2,156.8c0,0-2.4,1.9-6,5c-2.1,0-17.3,0.5-28.7,4.4l-0.2-0.5
				c-1.9-24.2,9-24.7,21.4-18C108.3,150.1,112.9,153.4,117.2,156.8"/>
			<path id="XMLID_38_" class="st10" d="M111.3,161.8c3.6-3.1,6-5,6-5l0,0c10.3,8.2,18.8,17.3,18.8,17.3l0.3,0
				c0.1,7.4-0.2,14.5-0.6,19.7c-0.3,5-0.7,8.2-0.7,8.2l0,0.2c-10.5,0.7-21.6,0.2-29-0.3c-5-0.4-8.2-0.7-8.2-0.7l-0.5,0.1
				c-1.5-12.5-1.2-24.6-1.2-24.6l-0.7-0.1C101.2,170.6,107.1,165.4,111.3,161.8"/>
			<path id="XMLID_27_" class="st11" d="M153.8,172.1c4.3-8.1,5.1-14.3,2.4-18.4c-3.1-4.6-10.2-6.2-21.8-5
				c-2.2-7.1-5.5-11.3-9.9-12.5c-5.5-1.5-12.4,1.9-20.8,10.2c-7.3-3.8-13-4.4-16.8-1.9c-4.5,2.9-6.3,9.8-5.5,21
				c-7.2,2.6-11.3,6.3-12.3,10.8c-1.1,5.3,2.3,11.6,10.2,18.8c-3.8,6.6-4.6,11.9-2.4,15.7c2.5,4.2,8.7,6.3,18.7,6.3
				c1.2,0,2.5,0,3.8-0.1c2.4,7.6,5.9,12,10.2,12.9c0.6,0.1,1.2,0.2,1.9,0.2c4.5,0,9.7-3.4,15.7-10.2c5.1,2.9,9.4,4.3,12.8,4.3
				c2,0,3.7-0.5,5.2-1.4c4.4-2.9,5.9-10,4.4-21.5c7.8-2,12.4-5.2,13.7-9.6C164.8,186.3,161.7,180,153.8,172.1 M154.4,154.8
				c2.3,3.5,1.4,9.2-2.9,17c-4.5,8.3-11.6,16.5-14.6,19.8c0.3-4.7,0.5-10.9,0.4-17.5c-0.2-9.5-1-17.4-2.5-23.4
				C145.3,149.7,151.9,151,154.4,154.8 M106.2,200.8c-4.1-0.3-7-0.6-7.9-0.7c-1.4-12-1.1-23.9-1.1-23.9c5.6-5.6,10.9-10.3,14.7-13.6
				c2.5-2.1,4.4-3.7,5.3-4.4c9.8,7.9,18,16.6,18,16.7l0.1-0.1c0.1,7.4-0.3,14.4-0.6,18.9c-0.2,3.6-0.5,6.3-0.6,7.5
				C124,201.8,113.4,201.3,106.2,200.8 M123.9,138.2c3.8,1,6.7,5,8.6,12c1.5,5.5,2.5,12.8,2.7,21.6c-2.9-3-9.7-9.7-17.4-15.9
				c-4.4-3.6-8.6-6.4-12.3-8.5C113.2,140.1,119.3,137,123.9,138.2 M88,146.2c3.3-2.1,8.5-1.3,15.4,2.4c3.6,2,7.7,4.7,12.2,8.2
				c-1,0.8-2.6,2.2-4.7,3.9c-2.8,0.1-16.6,0.6-27.4,4C82.8,154.9,84.3,148.6,88,146.2 M71.2,176.7c0.8-3.9,4.8-7.1,11.8-9.5
				c8.8-3,20-3.9,25.4-4.2c-3.8,3.4-8.7,7.9-13.5,12.8c-6.4,6.5-11.2,12.4-14.4,17.4C73.4,186.6,70.3,181.1,71.2,176.7 M78.7,209.6
				c-1.9-3.2-1-8,2.8-14.2c2.9-4.9,7.5-10.6,13.6-16.9c0,3.9,0.1,13.3,1.2,22.9c0.6,5.2,1.5,9.7,2.5,13.5
				C87.9,215.2,81.1,213.5,78.7,209.6 M110.2,227.7c-3.7-0.8-6.7-4.9-8.9-12.3c-1.1-3.6-2-8.1-2.6-13.2c1.2,0.1,3.4,0.4,6.7,0.6
				c0,0,10,9.7,20.1,15.8C119.3,225.6,114.2,228.6,110.2,227.7 M144.1,220.9c-3.3,2.2-9.1,1-16.6-3.4c-7.8-4.5-15.6-11.3-18.9-14.4
				c4.4,0.3,9.8,0.5,15.4,0.5c3.7,0,7.5-0.1,11.2-0.4c4.7-0.3,8.9-0.9,12.5-1.6C148.9,212,147.7,218.5,144.1,220.9 M161.3,190.9
				c-1.1,3.8-5.5,6.6-13.1,8.4c-3.4,0.8-7.4,1.4-12,1.7c0.1-1.3,0.4-2.8,0.6-6c0,0,9.9-10.6,15.9-21.1
				C159.6,181,162.5,186.7,161.3,190.9"/>
		</g>
	</g>
</g>
</svg>
